<?xml version="1.0"?>
<svg width="280" height="280" xmlns="http://www.w3.org/2000/svg">
 <!-- Created with Method Draw - http://github.com/duopixel/Method-Draw/ -->

 <g>
  <title>Layer 1</title>
  <path transform="rotate(-7 140.017 65.2449)" stroke="#84D3DB" d="m113.76059,93c0,-1 0.244934,-3.076111 0,-4c-0.346466,-1.306549 -0.640167,-2 -0.640167,-3c0,-1 -0.395172,-1.076111 -0.640106,-2c-0.346466,-1.306549 -0.187531,-2.292908 -0.640167,-3c-0.452637,-0.707092 -0.640137,-2 -0.640137,-3c0,-1 -0.640106,-1 -0.640106,-2c0,-1 -0.293701,-1.693451 -0.640167,-3c-0.489929,-1.847748 -0.1875,-2.292908 -0.640106,-3c-0.452667,-0.707092 0,-2 0,-3c0,-1 0,-2 0,-3c0,-1 0.244934,-2.076111 0,-3c-0.346466,-1.306549 -0.640167,-2 -0.640167,-3c0,-1 -0.640137,-1 -0.640137,-2c0,-1 -0.187469,-1.292908 -0.640106,-2c-0.452698,-0.707092 -0.187531,-2.292908 -0.640167,-3c-0.452637,-0.707092 0.147095,-2.026764 0,-3c-0.328857,-2.176239 -0.933838,-2.693451 -1.280273,-4c-0.244965,-0.923889 0,-2 0,-3c0,-1 0,-2 0,-3c0,-1 0,-2 0,-3c0,-1 0,-2 0,-3c0,-1 0,-2 0,-3c0,-1 0,-2 0,-3c0,-1 0.640137,-2 0.640137,-3c0,-1 0.1875,-2.292908 0.640137,-3c0.452637,-0.707092 0.933868,-0.693451 1.280273,-2c0.244995,-0.923889 0.187469,-2.292908 0.640137,-3c0.905334,-1.414215 1.280273,-1 1.920441,-1c0.640106,0 0.827606,-0.292908 1.280243,-1c0.452637,-0.707092 1.377747,-1.234619 2.560547,-2c0.836395,-0.541199 1.280273,-1 1.92041,-1c0.640167,0 1.377716,-0.234619 2.560547,-1c0.836365,-0.541199 1.92041,-2 3.200684,-2c0.640106,0 3.200684,-2 4.480927,-2c1.920441,0 3.840851,0 5.761261,0c1.92041,0 3.200684,0 5.121063,0c1.280304,0 3.200684,0 4.480957,0c1.280304,0 2.560516,0 3.84082,0c1.280273,0 3.200684,0 3.84079,0c1.280273,0 1.920441,0 3.200745,0c1.280243,0 2.706696,-1.148056 4.480927,0c0.836365,0.541199 2.560547,2 3.200684,3c1.280243,2 1.723572,2.186005 2.560547,4c0.529297,1.147278 1.54837,2.418854 2.560516,4c1.012146,1.581146 1.280273,3 1.92041,4c0.640137,1 0.607178,2.298706 1.280273,4c0.752533,1.9021 1.247345,3.298706 1.92041,5c0.752533,1.9021 0.70282,2.824432 1.92038,4c0.544586,0.525726 0.933868,1.693451 1.280304,3c0.244995,0.923889 0,2 0,4c0,1 0.311279,1.823761 0.640137,4c0.294159,1.946503 0,3 0,5c0,1 0,4 0,5c0,2 -0.951385,3.823761 -1.280273,6c-0.441223,2.919739 -0.750916,4.852722 -1.280273,6c-0.836945,1.813995 -1.280273,5 -2.560516,7c-1.280304,2 -1.920441,4 -3.200684,6c-1.280273,2 -3.399139,3.337494 -5.121094,5c-1.540192,1.487 -1.920441,3 -4.480957,5c-1.280304,1 -2.828644,2.418854 -3.84079,4c-1.012177,1.581146 -1.844635,3.190277 -3.840851,5c-1.238007,1.122345 -2.65802,2.234619 -3.84082,3c-1.67276,1.082397 -1.92038,3 -3.200684,4c-1.280273,1 -2.65799,2.234619 -3.84082,3c-1.672729,1.082397 -1.9375,2.770233 -2.560516,3c-1.393097,0.513733 -1.655273,0.585785 -2.560577,2c-0.452637,0.707092 -0.443878,1.458801 -1.280273,2c-0.5914,0.38269 -0.827606,1.292908 -1.280243,2c-0.452637,0.707092 -0.395172,2.076111 -0.640167,3c-0.346405,1.306549 -1.035278,1.076111 -1.280243,2c-0.346436,1.306549 -0.640137,2 -0.640137,3l0,1" id="svg_1" stroke-width="0" fill="#7c6ae6"/>
  <path transform="rotate(49 206.017 103.245)" stroke="#84D3DB" d="m179.76059,131c0,-1 0.244934,-3.076111 0,-4c-0.346466,-1.306549 -0.640167,-2 -0.640167,-3c0,-1 -0.395172,-1.076111 -0.640106,-2c-0.346466,-1.306549 -0.187531,-2.292908 -0.640167,-3c-0.452637,-0.707092 -0.640137,-2 -0.640137,-3c0,-1 -0.640106,-1 -0.640106,-2c0,-1 -0.293701,-1.693451 -0.640167,-3c-0.489929,-1.847748 -0.1875,-2.292908 -0.640106,-3c-0.452667,-0.707092 0,-2 0,-3c0,-1 0,-2 0,-3c0,-1 0.244934,-2.076111 0,-3c-0.346466,-1.306549 -0.640167,-2 -0.640167,-3c0,-1 -0.640137,-1 -0.640137,-2c0,-1 -0.187469,-1.292908 -0.640106,-2c-0.452698,-0.707092 -0.187531,-2.292908 -0.640167,-3c-0.452637,-0.707092 0.147095,-2.026764 0,-3c-0.328857,-2.176239 -0.933838,-2.693451 -1.280273,-4c-0.244965,-0.923889 0,-2 0,-3c0,-1 0,-2 0,-3c0,-1 0,-2 0,-3c0,-1 0,-2 0,-3c0,-1 0,-2 0,-3c0,-1 0,-2 0,-3c0,-1 0.640137,-2 0.640137,-3c0,-1 0.1875,-2.292908 0.640137,-3c0.452637,-0.707092 0.933868,-0.693451 1.280273,-2c0.244995,-0.923889 0.187469,-2.292908 0.640137,-3c0.905334,-1.414215 1.280273,-1 1.920441,-1c0.640106,0 0.827606,-0.292908 1.280243,-1c0.452637,-0.707092 1.377747,-1.234619 2.560547,-2c0.836395,-0.541199 1.280273,-1 1.92041,-1c0.640167,0 1.377716,-0.234619 2.560547,-1c0.836365,-0.541199 1.92041,-2 3.200684,-2c0.640106,0 3.200684,-2 4.480927,-2c1.920441,0 3.840851,0 5.761261,0c1.92041,0 3.200684,0 5.121063,0c1.280304,0 3.200684,0 4.480957,0c1.280304,0 2.560516,0 3.84082,0c1.280273,0 3.200684,0 3.84079,0c1.280273,0 1.920441,0 3.200745,0c1.280243,0 2.706696,-1.148056 4.480927,0c0.836365,0.541199 2.560547,2 3.200684,3c1.280243,2 1.723572,2.186005 2.560547,4c0.529297,1.147278 1.54837,2.418854 2.560516,4c1.012146,1.581146 1.280273,3 1.92041,4c0.640137,1 0.607178,2.298706 1.280273,4c0.752533,1.9021 1.247345,3.298706 1.92041,5c0.752533,1.9021 0.70282,2.824432 1.92038,4c0.544586,0.525726 0.933868,1.693451 1.280304,3c0.244995,0.923889 0,2 0,4c0,1 0.311279,1.823761 0.640137,4c0.294159,1.946503 0,3 0,5c0,1 0,4 0,5c0,2 -0.951385,3.823761 -1.280273,6c-0.441223,2.919739 -0.750916,4.852722 -1.280273,6c-0.836945,1.813995 -1.280273,5 -2.560516,7c-1.280304,2 -1.920441,4 -3.200684,6c-1.280273,2 -3.399139,3.337494 -5.121094,5c-1.540192,1.487 -1.920441,3 -4.480957,5c-1.280304,1 -2.828644,2.418854 -3.84079,4c-1.012177,1.581146 -1.844635,3.190277 -3.840851,5c-1.238007,1.122345 -2.65802,2.234619 -3.84082,3c-1.67276,1.082397 -1.92038,3 -3.200684,4c-1.280273,1 -2.65799,2.234619 -3.84082,3c-1.672729,1.082397 -1.9375,2.770233 -2.560516,3c-1.393097,0.513733 -1.655273,0.585785 -2.560577,2c-0.452637,0.707092 -0.443878,1.458801 -1.280273,2c-0.5914,0.38269 -0.827606,1.292908 -1.280243,2c-0.452637,0.707092 -0.395172,2.076111 -0.640167,3c-0.346405,1.306549 -1.035278,1.076111 -1.280243,2c-0.346436,1.306549 -0.640137,2 -0.640137,3l0,1" id="svg_2" stroke-width="0" fill="#084c8e"/>
  <path transform="rotate(-72 74.0171 99.2449)" stroke="#84D3DB" d="m47.76059,127c0,-1 0.244934,-3.076111 0,-4c-0.346466,-1.306549 -0.640167,-2 -0.640167,-3c0,-1 -0.395172,-1.076111 -0.640106,-2c-0.346466,-1.306549 -0.187531,-2.292908 -0.640167,-3c-0.452637,-0.707092 -0.640137,-2 -0.640137,-3c0,-1 -0.640106,-1 -0.640106,-2c0,-1 -0.293701,-1.693451 -0.640167,-3c-0.489929,-1.847748 -0.1875,-2.292908 -0.640106,-3c-0.452667,-0.707092 0,-2 0,-3c0,-1 0,-2 0,-3c0,-1 0.244934,-2.076111 0,-3c-0.346466,-1.306549 -0.640167,-2 -0.640167,-3c0,-1 -0.640137,-1 -0.640137,-2c0,-1 -0.187469,-1.292908 -0.640106,-2c-0.452698,-0.707092 -0.187531,-2.292908 -0.640167,-3c-0.452637,-0.707092 0.147095,-2.026764 0,-3c-0.328857,-2.176239 -0.933838,-2.693451 -1.280273,-4c-0.244965,-0.923889 0,-2 0,-3c0,-1 0,-2 0,-3c0,-1 0,-2 0,-3c0,-1 0,-2 0,-3c0,-1 0,-2 0,-3c0,-1 0,-2 0,-3c0,-1 0.640137,-2 0.640137,-3c0,-1 0.1875,-2.292908 0.640137,-3c0.452637,-0.707092 0.933868,-0.693451 1.280273,-2c0.244995,-0.923889 0.187469,-2.292908 0.640137,-3c0.905334,-1.414215 1.280273,-1 1.920441,-1c0.640106,0 0.827606,-0.292908 1.280243,-1c0.452637,-0.707092 1.377747,-1.234619 2.560547,-2c0.836395,-0.541199 1.280273,-1 1.92041,-1c0.640167,0 1.377716,-0.234619 2.560547,-1c0.836365,-0.541199 1.92041,-2 3.200684,-2c0.640106,0 3.200684,-2 4.480927,-2c1.920441,0 3.840851,0 5.761261,0c1.92041,0 3.200684,0 5.121063,0c1.280304,0 3.200684,0 4.480957,0c1.280304,0 2.560516,0 3.84082,0c1.280273,0 3.200684,0 3.84079,0c1.280273,0 1.920441,0 3.200745,0c1.280243,0 2.706696,-1.148056 4.480927,0c0.836365,0.541199 2.560547,2 3.200684,3c1.280243,2 1.723572,2.186005 2.560547,4c0.529297,1.147278 1.54837,2.418854 2.560516,4c1.012146,1.581146 1.280273,3 1.92041,4c0.640137,1 0.607178,2.298706 1.280273,4c0.752533,1.9021 1.247345,3.298706 1.92041,5c0.752533,1.9021 0.70282,2.824432 1.92038,4c0.544586,0.525726 0.933868,1.693451 1.280304,3c0.244995,0.923889 0,2 0,4c0,1 0.311279,1.823761 0.640137,4c0.294159,1.946503 0,3 0,5c0,1 0,4 0,5c0,2 -0.951385,3.823761 -1.280273,6c-0.441223,2.919739 -0.750916,4.852722 -1.280273,6c-0.836945,1.813995 -1.280273,5 -2.560516,7c-1.280304,2 -1.920441,4 -3.200684,6c-1.280273,2 -3.399139,3.337494 -5.121094,5c-1.540192,1.487 -1.920441,3 -4.480957,5c-1.280304,1 -2.828644,2.418854 -3.84079,4c-1.012177,1.581146 -1.844635,3.190277 -3.840851,5c-1.238007,1.122345 -2.65802,2.234619 -3.84082,3c-1.67276,1.082397 -1.92038,3 -3.200684,4c-1.280273,1 -2.65799,2.234619 -3.84082,3c-1.672729,1.082397 -1.9375,2.770233 -2.560516,3c-1.393097,0.513733 -1.655273,0.585785 -2.560577,2c-0.452637,0.707092 -0.443878,1.458801 -1.280273,2c-0.5914,0.38269 -0.827606,1.292908 -1.280243,2c-0.452637,0.707092 -0.395172,2.076111 -0.640167,3c-0.346405,1.306549 -1.035278,1.076111 -1.280243,2c-0.346436,1.306549 -0.640137,2 -0.640137,3l0,1" id="svg_4" stroke-width="0" fill="#00b285"/>
  <path transform="rotate(-134 73.0171 173.245)" stroke="#84D3DB" d="m46.76059,201c0,-1 0.244934,-3.076111 0,-4c-0.346466,-1.306549 -0.640167,-2 -0.640167,-3c0,-1 -0.395172,-1.076111 -0.640106,-2c-0.346466,-1.306549 -0.187531,-2.292908 -0.640167,-3c-0.452637,-0.707092 -0.640137,-2 -0.640137,-3c0,-1 -0.640106,-1 -0.640106,-2c0,-1 -0.293701,-1.693451 -0.640167,-3c-0.489929,-1.847748 -0.1875,-2.292908 -0.640106,-3c-0.452667,-0.707092 0,-2 0,-3c0,-1 0,-2 0,-3c0,-1 0.244934,-2.076111 0,-3c-0.346466,-1.306549 -0.640167,-2 -0.640167,-3c0,-1 -0.640137,-1 -0.640137,-2c0,-1 -0.187469,-1.292908 -0.640106,-2c-0.452698,-0.707092 -0.187531,-2.292908 -0.640167,-3c-0.452637,-0.707092 0.147095,-2.026764 0,-3c-0.328857,-2.176239 -0.933838,-2.693451 -1.280273,-4c-0.244965,-0.923889 0,-2 0,-3c0,-1 0,-2 0,-3c0,-1 0,-2 0,-3c0,-1 0,-2 0,-3c0,-1 0,-2 0,-3c0,-1 0,-2 0,-3c0,-1 0.640137,-2 0.640137,-3c0,-1 0.1875,-2.292908 0.640137,-3c0.452637,-0.707092 0.933868,-0.693451 1.280273,-2c0.244995,-0.923889 0.187469,-2.292908 0.640137,-3c0.905334,-1.414215 1.280273,-1 1.920441,-1c0.640106,0 0.827606,-0.292908 1.280243,-1c0.452637,-0.707092 1.377747,-1.234619 2.560547,-2c0.836395,-0.541199 1.280273,-1 1.92041,-1c0.640167,0 1.377716,-0.234619 2.560547,-1c0.836365,-0.541199 1.92041,-2 3.200684,-2c0.640106,0 3.200684,-2 4.480927,-2c1.920441,0 3.840851,0 5.761261,0c1.92041,0 3.200684,0 5.121063,0c1.280304,0 3.200684,0 4.480957,0c1.280304,0 2.560516,0 3.84082,0c1.280273,0 3.200684,0 3.84079,0c1.280273,0 1.920441,0 3.200745,0c1.280243,0 2.706696,-1.148071 4.480927,0c0.836365,0.541199 2.560547,2 3.200684,3c1.280243,2 1.723572,2.186005 2.560547,4c0.529297,1.147278 1.54837,2.418854 2.560516,4c1.012146,1.581146 1.280273,3 1.92041,4c0.640137,1 0.607178,2.298706 1.280273,4c0.752533,1.9021 1.247345,3.298706 1.92041,5c0.752533,1.9021 0.70282,2.824432 1.92038,4c0.544586,0.525726 0.933868,1.693451 1.280304,3c0.244995,0.923889 0,2 0,4c0,1 0.311279,1.823761 0.640137,4c0.294159,1.946503 0,3 0,5c0,1 0,4 0,5c0,2 -0.951385,3.823761 -1.280273,6c-0.441223,2.919739 -0.750916,4.852722 -1.280273,6c-0.836945,1.813995 -1.280273,5 -2.560516,7c-1.280304,2 -1.920441,4 -3.200684,6c-1.280273,2 -3.399139,3.337494 -5.121094,5c-1.540192,1.487 -1.920441,3 -4.480957,5c-1.280304,1 -2.828644,2.418854 -3.84079,4c-1.012177,1.581146 -1.844635,3.190277 -3.840851,5c-1.238007,1.122345 -2.65802,2.234619 -3.84082,3c-1.67276,1.082397 -1.92038,3 -3.200684,4c-1.280273,1 -2.65799,2.234619 -3.84082,3c-1.672729,1.082397 -1.9375,2.770233 -2.560516,3c-1.393097,0.513733 -1.655273,0.585785 -2.560577,2c-0.452637,0.707092 -0.443878,1.458801 -1.280273,2c-0.5914,0.38269 -0.827606,1.292908 -1.280243,2c-0.452637,0.707092 -0.395172,2.076111 -0.640167,3c-0.346405,1.306549 -1.035278,1.076111 -1.280243,2c-0.346436,1.306549 -0.640137,2 -0.640137,3l0,1" id="svg_5" stroke-width="0" fill="#158fef"/>
  <path transform="rotate(171 134.017 209.245)" stroke="#84D3DB" d="m107.76059,237c0,-1 0.244934,-3.076111 0,-4c-0.346466,-1.306549 -0.640167,-2 -0.640167,-3c0,-1 -0.395172,-1.076111 -0.640106,-2c-0.346466,-1.306549 -0.187531,-2.292908 -0.640167,-3c-0.452637,-0.707092 -0.640137,-2 -0.640137,-3c0,-1 -0.640106,-1 -0.640106,-2c0,-1 -0.293701,-1.693451 -0.640167,-3c-0.489929,-1.847748 -0.1875,-2.292908 -0.640106,-3c-0.452667,-0.707092 0,-2 0,-3c0,-1 0,-2 0,-3c0,-1 0.244934,-2.076111 0,-3c-0.346466,-1.306549 -0.640167,-2 -0.640167,-3c0,-1 -0.640137,-1 -0.640137,-2c0,-1 -0.187469,-1.292908 -0.640106,-2c-0.452698,-0.707092 -0.187531,-2.292908 -0.640167,-3c-0.452637,-0.707092 0.147095,-2.026764 0,-3c-0.328857,-2.176239 -0.933838,-2.693451 -1.280273,-4c-0.244965,-0.923889 0,-2 0,-3c0,-1 0,-2 0,-3c0,-1 0,-2 0,-3c0,-1 0,-2 0,-3c0,-1 0,-2 0,-3c0,-1 0,-2 0,-3c0,-1 0.640137,-2 0.640137,-3c0,-1 0.1875,-2.292908 0.640137,-3c0.452637,-0.707092 0.933868,-0.693451 1.280273,-2c0.244995,-0.923889 0.187469,-2.292908 0.640137,-3c0.905334,-1.414215 1.280273,-1 1.920441,-1c0.640106,0 0.827606,-0.292908 1.280243,-1c0.452637,-0.707092 1.377747,-1.234619 2.560547,-2c0.836395,-0.541199 1.280273,-1 1.92041,-1c0.640167,0 1.377716,-0.234619 2.560547,-1c0.836365,-0.541199 1.92041,-2 3.200684,-2c0.640106,0 3.200684,-2 4.480927,-2c1.920441,0 3.840851,0 5.761261,0c1.92041,0 3.200684,0 5.121063,0c1.280304,0 3.200684,0 4.480957,0c1.280304,0 2.560516,0 3.84082,0c1.280273,0 3.200684,0 3.84079,0c1.280273,0 1.920441,0 3.200745,0c1.280243,0 2.706696,-1.148071 4.480927,0c0.836365,0.541199 2.560547,2 3.200684,3c1.280243,2 1.723572,2.186005 2.560547,4c0.529297,1.147278 1.54837,2.418854 2.560516,4c1.012146,1.581146 1.280273,3 1.92041,4c0.640137,1 0.607178,2.298706 1.280273,4c0.752533,1.9021 1.247345,3.298706 1.92041,5c0.752533,1.9021 0.70282,2.824432 1.92038,4c0.544586,0.525726 0.933868,1.693451 1.280304,3c0.244995,0.923889 0,2 0,4c0,1 0.311279,1.823761 0.640137,4c0.294159,1.946503 0,3 0,5c0,1 0,4 0,5c0,2 -0.951385,3.823761 -1.280273,6c-0.441223,2.919739 -0.750916,4.852722 -1.280273,6c-0.836945,1.813995 -1.280273,5 -2.560516,7c-1.280304,2 -1.920441,4 -3.200684,6c-1.280273,2 -3.399139,3.337494 -5.121094,5c-1.540192,1.487 -1.920441,3 -4.480957,5c-1.280304,1 -2.828644,2.418854 -3.84079,4c-1.012177,1.581146 -1.844635,3.190277 -3.840851,5c-1.238007,1.122345 -2.65802,2.234619 -3.84082,3c-1.67276,1.082397 -1.92038,3 -3.200684,4c-1.280273,1 -2.65799,2.234619 -3.84082,3c-1.672729,1.082397 -1.9375,2.770233 -2.560516,3c-1.393097,0.513733 -1.655273,0.585785 -2.560577,2c-0.452637,0.707092 -0.443878,1.458801 -1.280273,2c-0.5914,0.38269 -0.827606,1.292908 -1.280243,2c-0.452637,0.707092 -0.395172,2.076111 -0.640167,3c-0.346405,1.306549 -1.035278,1.076111 -1.280243,2c-0.346436,1.306549 -0.640137,2 -0.640137,3l0,1" id="svg_6" stroke-width="0" fill="#8bce67"/>
  <path transform="rotate(115 197.017 179.245)" stroke="#84D3DB" d="m170.76059,207c0,-1 0.244934,-3.076111 0,-4c-0.346466,-1.306549 -0.640167,-2 -0.640167,-3c0,-1 -0.395172,-1.076111 -0.640106,-2c-0.346466,-1.306549 -0.187531,-2.292908 -0.640167,-3c-0.452637,-0.707092 -0.640137,-2 -0.640137,-3c0,-1 -0.640106,-1 -0.640106,-2c0,-1 -0.293701,-1.693451 -0.640167,-3c-0.489929,-1.847748 -0.1875,-2.292908 -0.640106,-3c-0.452667,-0.707092 0,-2 0,-3c0,-1 0,-2 0,-3c0,-1 0.244934,-2.076111 0,-3c-0.346466,-1.306549 -0.640167,-2 -0.640167,-3c0,-1 -0.640137,-1 -0.640137,-2c0,-1 -0.187469,-1.292908 -0.640106,-2c-0.452698,-0.707092 -0.187531,-2.292908 -0.640167,-3c-0.452637,-0.707092 0.147095,-2.026764 0,-3c-0.328857,-2.176239 -0.933838,-2.693451 -1.280273,-4c-0.244965,-0.923889 0,-2 0,-3c0,-1 0,-2 0,-3c0,-1 0,-2 0,-3c0,-1 0,-2 0,-3c0,-1 0,-2 0,-3c0,-1 0,-2 0,-3c0,-1 0.640137,-2 0.640137,-3c0,-1 0.1875,-2.292908 0.640137,-3c0.452637,-0.707092 0.933868,-0.693451 1.280273,-2c0.244995,-0.923889 0.187469,-2.292908 0.640137,-3c0.905334,-1.414215 1.280273,-1 1.920441,-1c0.640106,0 0.827606,-0.292908 1.280243,-1c0.452637,-0.707092 1.377747,-1.234619 2.560547,-2c0.836395,-0.541199 1.280273,-1 1.92041,-1c0.640167,0 1.377716,-0.234619 2.560547,-1c0.836365,-0.541199 1.92041,-2 3.200684,-2c0.640106,0 3.200684,-2 4.480927,-2c1.920441,0 3.840851,0 5.761261,0c1.92041,0 3.200684,0 5.121063,0c1.280304,0 3.200684,0 4.480957,0c1.280304,0 2.560516,0 3.84082,0c1.280273,0 3.200684,0 3.84079,0c1.280273,0 1.920441,0 3.200745,0c1.280243,0 2.706696,-1.148071 4.480927,0c0.836365,0.541199 2.560547,2 3.200684,3c1.280243,2 1.723572,2.186005 2.560547,4c0.529297,1.147278 1.54837,2.418854 2.560516,4c1.012146,1.581146 1.280273,3 1.92041,4c0.640137,1 0.607178,2.298706 1.280273,4c0.752533,1.9021 1.247345,3.298706 1.92041,5c0.752533,1.9021 0.70282,2.824432 1.92038,4c0.544586,0.525726 0.933868,1.693451 1.280304,3c0.244995,0.923889 0,2 0,4c0,1 0.311279,1.823761 0.640137,4c0.294159,1.946503 0,3 0,5c0,1 0,4 0,5c0,2 -0.951385,3.823761 -1.280273,6c-0.441223,2.919739 -0.750916,4.852722 -1.280273,6c-0.836945,1.813995 -1.280273,5 -2.560516,7c-1.280304,2 -1.920441,4 -3.200684,6c-1.280273,2 -3.399139,3.337494 -5.121094,5c-1.540192,1.487 -1.920441,3 -4.480957,5c-1.280304,1 -2.828644,2.418854 -3.84079,4c-1.012177,1.581146 -1.844635,3.190277 -3.840851,5c-1.238007,1.122345 -2.65802,2.234619 -3.84082,3c-1.67276,1.082397 -1.92038,3 -3.200684,4c-1.280273,1 -2.65799,2.234619 -3.84082,3c-1.672729,1.082397 -1.9375,2.770233 -2.560516,3c-1.393097,0.513733 -1.655273,0.585785 -2.560577,2c-0.452637,0.707092 -0.443878,1.458801 -1.280273,2c-0.5914,0.38269 -0.827606,1.292908 -1.280243,2c-0.452637,0.707092 -0.395172,2.076111 -0.640167,3c-0.346405,1.306549 -1.035278,1.076111 -1.280243,2c-0.346436,1.306549 -0.640137,2 -0.640137,3l0,1" id="svg_7" stroke-width="0" fill="#e74c3c"/>
 </g>
</svg>