<?xml version="1.0"?>
<svg width="210" height="210" xmlns="http://www.w3.org/2000/svg">
 <!-- Created with Method Draw - http://github.com/duopixel/Method-Draw/ -->

 <g>
  <title>background</title>
  <rect x="-1" y="-1" width="212" height="212" id="canvas_background" fill="none"/>
 </g>
 <g>
  <title>tandaly</title>
  <path fill="#ff0000" stroke="#000" stroke-width="0" stroke-opacity="null" d="m162.944458,132.320129c0,0 -0.496918,9.440994 -0.745331,9.440994c0.248413,0 -1.490662,16.894424 -1.739136,16.894424c0.248474,0 -1.98761,13.416168 -2.236023,13.416168c0.248413,0 -2.981384,14.161499 -2.981384,14.161499c0,0 -4.223633,11.180176 -4.472046,11.180176c0.248413,0 -2.236023,2.484436 -2.484497,2.484436c0.248474,0 -5.217407,4.472046 -5.46582,4.472046c0.248413,0 -4.968933,2.981415 -5.217407,2.981415c0.248474,0 -4.223633,1.739105 -4.472076,1.739105c0.248444,0 -5.217377,0 -5.465851,0c0.248474,0 -3.478241,0 -3.726685,0c0.248444,0 -3.726685,-0.745331 -3.975159,-0.745331c0.248474,0 -2.73291,-0.745331 -2.73291,-0.745331c0,0 -2.484497,-0.993835 -2.484497,-0.993835c0,0 -2.484497,-0.7453 -2.73291,-0.7453c0.248413,0 -2.73291,-1.490723 -2.981384,-1.490723c0.248474,0 -1.98761,-1.490662 -2.236023,-1.490662c0.248413,0 -2.236023,-1.98761 -2.484467,-1.98761c0.248444,0 -1.490692,-1.739136 -1.739136,-1.739136c0.248444,0 -1.987549,-2.981354 -2.235992,-2.981354c0.248444,0 -1.242279,-2.235992 -1.242279,-2.235992c0,0 -1.987579,-2.236023 -2.235992,-2.236023c0.248413,0 -0.745361,-2.981384 -0.993835,-2.981384c0.248474,0 -0.993774,-3.229797 -1.242188,-3.229797c0.248413,0 -0.745392,-3.229858 -0.993835,-3.229858c0.248444,0 -0.248413,-3.478271 -0.496887,-3.478271c0.248474,0 0,-2.484467 -0.248413,-2.484467c0.248413,0 0.7453,-2.73291 0.496887,-2.73291c0.248413,0 0.496857,-1.739136 0.248413,-1.739136c0.248444,0 0.745361,-2.236023 0.745361,-2.236023c0,0 0.496887,-2.236023 0.248474,-2.236023c0.248413,0 1.242188,-2.73291 0.993774,-2.73291c0.248413,0 1.739136,-2.73291 1.739136,-2.73291c0,0 1.490662,-2.732941 1.242249,-2.732941c0.248413,0 2.73291,-2.732925 2.484436,-2.732925c0.248474,0 2.73291,-2.236053 2.484497,-2.236053c0.248413,0 3.229797,-1.987564 2.981354,-1.987564c0.248444,0 3.726746,-1.739151 3.478302,-1.739151c0.248444,0 4.720459,-2.484451 4.472046,-2.484451c0.248413,0 5.217346,-1.987579 4.968933,-1.987579c0.248413,0 4.223572,-1.490692 3.975159,-1.490692c0.248413,0 4.223572,-1.73912 4.223572,-1.73912c0,0 4.223633,-1.490692 3.97522,-1.490692c0.248413,0 4.223602,-1.490692 3.975098,-1.490692c0.248505,0 4.223633,-1.490677 3.97522,-1.490677c0.248413,0 5.217377,-1.490692 4.968933,-1.490692c0.248444,0 4.472046,-1.242218 4.223602,-1.242218c0.248444,0 4.968933,-1.490692 4.72049,-1.490692c0.248444,0 4.472076,-1.242249 4.223633,-1.242249c0.248444,0 -2.732819,0.248413 5.217377,-0.496887z" id="svg_7" transform="rotate(-58 127.913 170.705)"/>
  <path transform="rotate(-5 69.4134 165.705)" fill="#008849" stroke="#000" stroke-width="0" stroke-opacity="null" d="m104.444458,127.320129c0,0 -0.496918,9.440994 -0.745331,9.440994c0.248413,0 -1.490662,16.894424 -1.739136,16.894424c0.248474,0 -1.98761,13.416168 -2.236023,13.416168c0.248413,0 -2.981384,14.161499 -2.981384,14.161499c0,0 -4.223633,11.180176 -4.472046,11.180176c0.248413,0 -2.236023,2.484436 -2.484497,2.484436c0.248474,0 -5.217407,4.472046 -5.46582,4.472046c0.248413,0 -4.968933,2.981415 -5.217407,2.981415c0.248474,0 -4.223633,1.739105 -4.472076,1.739105c0.248444,0 -5.217377,0 -5.465851,0c0.248474,0 -3.478241,0 -3.726685,0c0.248444,0 -3.726685,-0.745331 -3.975159,-0.745331c0.248474,0 -2.73291,-0.745331 -2.73291,-0.745331c0,0 -2.484497,-0.993835 -2.484497,-0.993835c0,0 -2.484497,-0.7453 -2.73291,-0.7453c0.248413,0 -2.73291,-1.490723 -2.981384,-1.490723c0.248474,0 -1.98761,-1.490662 -2.236023,-1.490662c0.248413,0 -2.236023,-1.98761 -2.484467,-1.98761c0.248444,0 -1.490692,-1.739136 -1.739136,-1.739136c0.248444,0 -1.987549,-2.981354 -2.235992,-2.981354c0.248444,0 -1.242279,-2.235992 -1.242279,-2.235992c0,0 -1.987579,-2.236023 -2.235992,-2.236023c0.248413,0 -0.745361,-2.981384 -0.993835,-2.981384c0.248474,0 -0.993774,-3.229797 -1.242188,-3.229797c0.248413,0 -0.745392,-3.229858 -0.993835,-3.229858c0.248444,0 -0.248413,-3.478271 -0.496887,-3.478271c0.248474,0 0,-2.484467 -0.248413,-2.484467c0.248413,0 0.7453,-2.73291 0.496887,-2.73291c0.248413,0 0.496857,-1.739136 0.248413,-1.739136c0.248444,0 0.745361,-2.236023 0.745361,-2.236023c0,0 0.496887,-2.236023 0.248474,-2.236023c0.248413,0 1.242188,-2.73291 0.993774,-2.73291c0.248413,0 1.739136,-2.73291 1.739136,-2.73291c0,0 1.490662,-2.732941 1.242249,-2.732941c0.248413,0 2.73291,-2.73291 2.484436,-2.73291c0.248474,0 2.73291,-2.236053 2.484497,-2.236053c0.248413,0 3.229797,-1.987579 2.981354,-1.987579c0.248444,0 3.726746,-1.739136 3.478302,-1.739136c0.248444,0 4.720459,-2.484467 4.472046,-2.484467c0.248413,0 5.217346,-1.987579 4.968933,-1.987579c0.248413,0 4.223572,-1.490692 3.975159,-1.490692c0.248413,0 4.223572,-1.73912 4.223572,-1.73912c0,0 4.223633,-1.490692 3.97522,-1.490692c0.248413,0 4.223602,-1.490692 3.975098,-1.490692c0.248505,0 4.223633,-1.490677 3.97522,-1.490677c0.248413,0 5.217377,-1.490692 4.968933,-1.490692c0.248444,0 4.472046,-1.242233 4.223602,-1.242233c0.248444,0 4.968933,-1.490677 4.72049,-1.490677c0.248459,0 4.472076,-1.242249 4.223633,-1.242249c0.248444,0 -2.732819,0.248413 5.217377,-0.496887z" id="svg_8"/>
  <path fill="#0081cc" stroke="#000" stroke-width="0" stroke-opacity="null" d="m205.944458,92.320129c0,0 -0.496918,9.440994 -0.745331,9.440994c0.248413,0 -1.490662,16.89444 -1.739136,16.89444c0.248474,0 -1.98761,13.416153 -2.236023,13.416153c0.248413,0 -2.981384,14.161499 -2.981384,14.161499c0,0 -4.223633,11.180176 -4.472046,11.180176c0.248413,0 -2.236023,2.484436 -2.484497,2.484436c0.248474,0 -5.217407,4.472046 -5.46582,4.472046c0.248413,0 -4.968933,2.981415 -5.217407,2.981415c0.248474,0 -4.223633,1.739105 -4.472076,1.739105c0.248444,0 -5.217377,0 -5.465851,0c0.248474,0 -3.478241,0 -3.726685,0c0.248444,0 -3.726685,-0.745331 -3.975159,-0.745331c0.248474,0 -2.73291,-0.745331 -2.73291,-0.745331c0,0 -2.484497,-0.993835 -2.484497,-0.993835c0,0 -2.484497,-0.7453 -2.73291,-0.7453c0.248413,0 -2.73291,-1.490723 -2.981384,-1.490723c0.248474,0 -1.98761,-1.490662 -2.236023,-1.490662c0.248413,0 -2.236023,-1.98761 -2.484467,-1.98761c0.248444,0 -1.490692,-1.739136 -1.739136,-1.739136c0.248444,0 -1.987549,-2.981354 -2.235992,-2.981354c0.248444,0 -1.242279,-2.235992 -1.242279,-2.235992c0,0 -1.987579,-2.236023 -2.235992,-2.236023c0.248413,0 -0.745361,-2.981384 -0.993835,-2.981384c0.248474,0 -0.993774,-3.229797 -1.242188,-3.229797c0.248413,0 -0.745392,-3.229858 -0.993835,-3.229858c0.248444,0 -0.248413,-3.478271 -0.496887,-3.478271c0.248474,0 0,-2.484467 -0.248413,-2.484467c0.248413,0 0.7453,-2.73291 0.496887,-2.73291c0.248413,0 0.496857,-1.739136 0.248413,-1.739136c0.248444,0 0.745361,-2.236023 0.745361,-2.236023c0,0 0.496887,-2.236023 0.248474,-2.236023c0.248413,0 1.242188,-2.73291 0.993774,-2.73291c0.248413,0 1.739136,-2.73291 1.739136,-2.73291c0,0 1.490662,-2.732956 1.242249,-2.732956c0.248413,0 2.73291,-2.73291 2.484436,-2.73291c0.248474,0 2.73291,-2.236053 2.484497,-2.236053c0.248413,0 3.229797,-1.987564 2.981354,-1.987564c0.248444,0 3.726746,-1.739151 3.478302,-1.739151c0.248444,0 4.720459,-2.484451 4.472046,-2.484451c0.248413,0 5.217346,-1.987579 4.968933,-1.987579c0.248413,0 4.223572,-1.490692 3.975159,-1.490692c0.248413,0 4.223572,-1.73912 4.223572,-1.73912c0,0 4.223633,-1.490692 3.97522,-1.490692c0.248413,0 4.223602,-1.490692 3.975098,-1.490692c0.248505,0 4.223633,-1.490677 3.97522,-1.490677c0.248413,0 5.217377,-1.490692 4.968933,-1.490692c0.248444,0 4.472046,-1.242218 4.223602,-1.242218c0.248444,0 4.968933,-1.490692 4.72049,-1.490692c0.248444,0 4.472076,-1.242249 4.223633,-1.242249c0.248444,0 -2.732819,0.248413 5.217377,-0.496887z" id="svg_9" transform="rotate(-113 170.913 130.705)"/>
  <path fill="#a25a0d" stroke="#000" stroke-width="0" stroke-opacity="null" d="m200.444458,32.320129c0,0 -0.496918,9.440994 -0.745331,9.440994c0.248413,0 -1.490662,16.89444 -1.739136,16.89444c0.248474,0 -1.98761,13.416153 -2.236023,13.416153c0.248413,0 -2.981384,14.161507 -2.981384,14.161507c0,0 -4.223633,11.180168 -4.472046,11.180168c0.248413,0 -2.236023,2.484436 -2.484497,2.484436c0.248474,0 -5.217407,4.472046 -5.46582,4.472046c0.248413,0 -4.968933,2.981415 -5.217407,2.981415c0.248474,0 -4.223633,1.739105 -4.472076,1.739105c0.248444,0 -5.217377,0 -5.465851,0c0.248474,0 -3.478241,0 -3.726685,0c0.248444,0 -3.726685,-0.745331 -3.975159,-0.745331c0.248474,0 -2.73291,-0.745331 -2.73291,-0.745331c0,0 -2.484497,-0.99382 -2.484497,-0.99382c0,0 -2.484497,-0.7453 -2.73291,-0.7453c0.248413,0 -2.73291,-1.490738 -2.981384,-1.490738c0.248474,0 -1.98761,-1.490662 -2.236023,-1.490662c0.248413,0 -2.236023,-1.98761 -2.484467,-1.98761c0.248444,0 -1.490692,-1.73912 -1.739136,-1.73912c0.248444,0 -1.987549,-2.981369 -2.235992,-2.981369c0.248444,0 -1.242279,-2.235992 -1.242279,-2.235992c0,0 -1.987579,-2.236023 -2.235992,-2.236023c0.248413,0 -0.745361,-2.981384 -0.993835,-2.981384c0.248474,0 -0.993774,-3.22979 -1.242188,-3.22979c0.248413,0 -0.745392,-3.229866 -0.993835,-3.229866c0.248444,0 -0.248413,-3.478264 -0.496887,-3.478264c0.248474,0 0,-2.484474 -0.248413,-2.484474c0.248413,0 0.7453,-2.73291 0.496887,-2.73291c0.248413,0 0.496857,-1.739136 0.248413,-1.739136c0.248444,0 0.745361,-2.236023 0.745361,-2.236023c0,0 0.496887,-2.236023 0.248474,-2.236023c0.248413,0 1.242188,-2.73291 0.993774,-2.73291c0.248413,0 1.739136,-2.73291 1.739136,-2.73291c0,0 1.490662,-2.732956 1.242249,-2.732956c0.248413,0 2.73291,-2.73291 2.484436,-2.73291c0.248474,0 2.73291,-2.23605 2.484497,-2.23605c0.248413,0 3.229797,-1.987556 2.981354,-1.987556c0.248444,0 3.726746,-1.739159 3.478302,-1.739159c0.248444,0 4.720459,-2.484455 4.472046,-2.484455c0.248413,0 5.217346,-1.987579 4.968933,-1.987579c0.248413,0 4.223572,-1.490685 3.975159,-1.490685c0.248413,0 4.223572,-1.73912 4.223572,-1.73912c0,0 4.223633,-1.490692 3.97522,-1.490692c0.248413,0 4.223602,-1.4907 3.975098,-1.4907c0.248505,0 4.223633,-1.490646 3.97522,-1.490646c0.248413,0 5.217377,-1.4907 4.968933,-1.4907c0.248444,0 4.472046,-1.242241 4.223602,-1.242241c0.248444,0 4.968933,-1.490669 4.72049,-1.490669c0.248444,0 4.472076,-1.242264 4.223633,-1.242264c0.248444,0 -2.732819,0.248413 5.217377,-0.496887l0,-0.000004l0,-0.000004z" id="svg_10" transform="rotate(-166 165.413 70.7053)"/>
  <path fill="#fff35f" stroke="#000" stroke-width="0" stroke-opacity="null" d="m146.944458,3.320129c0,0 -0.496918,9.44099 -0.745331,9.44099c0.248413,0 -1.490662,16.894444 -1.739136,16.894444c0.248474,0 -1.98761,13.416153 -2.236023,13.416153c0.248413,0 -2.981384,14.161507 -2.981384,14.161507c0,0 -4.223633,11.180168 -4.472046,11.180168c0.248413,0 -2.236023,2.484436 -2.484497,2.484436c0.248474,0 -5.217407,4.472046 -5.46582,4.472046c0.248413,0 -4.968933,2.981415 -5.217407,2.981415c0.248474,0 -4.223633,1.739105 -4.472076,1.739105c0.248444,0 -5.217377,0 -5.465851,0c0.248474,0 -3.478241,0 -3.726685,0c0.248444,0 -3.726685,-0.745331 -3.975159,-0.745331c0.248474,0 -2.73291,-0.745331 -2.73291,-0.745331c0,0 -2.484497,-0.993835 -2.484497,-0.993835c0,0 -2.484497,-0.745293 -2.73291,-0.745293c0.248413,0 -2.73291,-1.49073 -2.981384,-1.49073c0.248474,0 -1.98761,-1.490662 -2.236023,-1.490662c0.248413,0 -2.236023,-1.98761 -2.484467,-1.98761c0.248444,0 -1.490692,-1.739143 -1.739136,-1.739143c0.248444,0 -1.987549,-2.981346 -2.235992,-2.981346c0.248444,0 -1.242279,-2.235992 -1.242279,-2.235992c0,0 -1.987579,-2.236023 -2.235992,-2.236023c0.248413,0 -0.745361,-2.981384 -0.993835,-2.981384c0.248474,0 -0.993774,-3.22979 -1.242188,-3.22979c0.248413,0 -0.745392,-3.229866 -0.993835,-3.229866c0.248444,0 -0.248413,-3.478264 -0.496887,-3.478264c0.248474,0 0,-2.484474 -0.248413,-2.484474c0.248413,0 0.7453,-2.73291 0.496887,-2.73291c0.248413,0 0.496857,-1.739136 0.248413,-1.739136c0.248444,0 0.745361,-2.236023 0.745361,-2.236023c0,0 0.496887,-2.236023 0.248474,-2.236023c0.248413,0 1.242188,-2.73291 0.993774,-2.73291c0.248413,0 1.739136,-2.73291 1.739136,-2.73291c0,0 1.490662,-2.732956 1.242249,-2.732956c0.248413,0 2.73291,-2.73291 2.484436,-2.73291c0.248474,0 2.73291,-2.236052 2.484497,-2.236052c0.248413,0 3.229797,-1.987564 2.981354,-1.987564c0.248444,0 3.726746,-1.739151 3.478302,-1.739151c0.248444,0 4.720459,-2.484451 4.472046,-2.484451c0.248413,0 5.217346,-1.987579 4.968933,-1.987579c0.248413,0 4.223572,-1.490691 3.975159,-1.490691c0.248413,0 4.223572,-1.739122 4.223572,-1.739122c0,0 4.223633,-1.490685 3.97522,-1.490685c0.248413,0 4.223602,-1.490688 3.975098,-1.490688c0.248505,0 4.223633,-1.490681 3.97522,-1.490681c0.248413,0 5.217377,-1.490692 4.968933,-1.490692c0.248444,0 4.472046,-1.242229 4.223602,-1.242229c0.248444,0 4.968933,-1.490681 4.72049,-1.490681c0.248444,0 4.472076,-1.242249 4.223633,-1.242249c0.248444,0 -2.732819,0.248409 5.217377,-0.496891l0,-0.000003l0,-0.000002z" id="svg_11" transform="rotate(143 111.913 41.7052)"/>
  <path fill="#00aebc" stroke="#000" stroke-width="0" stroke-opacity="null" d="m90.444458,21.320129c0,0 -0.496918,9.440994 -0.745331,9.440994c0.248413,0 -1.490662,16.89444 -1.739136,16.89444c0.248474,0 -1.98761,13.416153 -2.236023,13.416153c0.248413,0 -2.981384,14.161499 -2.981384,14.161499c0,0 -4.223633,11.180176 -4.472046,11.180176c0.248413,0 -2.236023,2.484436 -2.484497,2.484436c0.248474,0 -5.217407,4.472046 -5.46582,4.472046c0.248413,0 -4.968933,2.981415 -5.217407,2.981415c0.248474,0 -4.223633,1.739105 -4.472076,1.739105c0.248444,0 -5.217377,0 -5.465851,0c0.248474,0 -3.478241,0 -3.726685,0c0.248444,0 -3.726685,-0.745331 -3.975159,-0.745331c0.248474,0 -2.73291,-0.745331 -2.73291,-0.745331c0,0 -2.484497,-0.993835 -2.484497,-0.993835c0,0 -2.484497,-0.7453 -2.73291,-0.7453c0.248413,0 -2.73291,-1.490723 -2.981384,-1.490723c0.248474,0 -1.98761,-1.490662 -2.236023,-1.490662c0.248413,0 -2.236023,-1.98761 -2.484467,-1.98761c0.248444,0 -1.490692,-1.739136 -1.739136,-1.739136c0.248444,0 -1.987549,-2.981354 -2.235992,-2.981354c0.248444,0 -1.242279,-2.235992 -1.242279,-2.235992c0,0 -1.987579,-2.236023 -2.235992,-2.236023c0.248413,0 -0.745361,-2.981384 -0.993834,-2.981384c0.248472,0 -0.993774,-3.229797 -1.242189,-3.229797c0.248413,0 -0.745392,-3.229858 -0.993834,-3.229858c0.248444,0 -0.248413,-3.478264 -0.496887,-3.478264c0.248474,0 0,-2.484474 -0.248413,-2.484474c0.248413,0 0.7453,-2.73291 0.496887,-2.73291c0.248413,0 0.496857,-1.739136 0.248413,-1.739136c0.248444,0 0.745359,-2.236023 0.745359,-2.236023c0,0 0.496887,-2.236023 0.248474,-2.236023c0.248413,0 1.242189,-2.73291 0.993774,-2.73291c0.248413,0 1.739136,-2.73291 1.739136,-2.73291c0,0 1.490662,-2.732956 1.242249,-2.732956c0.248413,0 2.73291,-2.73291 2.484436,-2.73291c0.248474,0 2.73291,-2.23605 2.484497,-2.23605c0.248413,0 3.229797,-1.987564 2.981354,-1.987564c0.248444,0 3.726746,-1.739151 3.478302,-1.739151c0.248444,0 4.720459,-2.484451 4.472046,-2.484451c0.248413,0 5.217346,-1.987576 4.968933,-1.987576c0.248413,0 4.223572,-1.490692 3.975159,-1.490692c0.248413,0 4.223572,-1.739122 4.223572,-1.739122c0,0 4.223633,-1.490692 3.97522,-1.490692c0.248413,0 4.223602,-1.490685 3.975101,-1.490685c0.248505,0 4.223629,-1.490686 3.975216,-1.490686c0.248413,0 5.217377,-1.490685 4.968933,-1.490685c0.248444,0 4.472046,-1.242233 4.223602,-1.242233c0.248444,0 4.968933,-1.490677 4.72049,-1.490677c0.248459,0 4.472076,-1.242256 4.223633,-1.242256c0.248444,0 -2.732819,0.248413 5.217377,-0.496887l0,-0.000002l0,-0.000002z" id="svg_12" transform="rotate(90 55.4134 59.7053)"/>
  <path fill="#de4f00" stroke="#000" stroke-width="0" stroke-opacity="null" d="m73.944458,77.320129c0,0 -0.496918,9.440994 -0.745331,9.440994c0.248413,0 -1.490662,16.89444 -1.739136,16.89444c0.248474,0 -1.98761,13.416153 -2.236023,13.416153c0.248413,0 -2.981384,14.161499 -2.981384,14.161499c0,0 -4.223633,11.180176 -4.472046,11.180176c0.248413,0 -2.236023,2.484436 -2.484497,2.484436c0.248474,0 -5.217407,4.472046 -5.46582,4.472046c0.248413,0 -4.968933,2.981415 -5.217407,2.981415c0.248474,0 -4.223633,1.739105 -4.472076,1.739105c0.248444,0 -5.217377,0 -5.465851,0c0.248474,0 -3.478241,0 -3.726685,0c0.248444,0 -3.726685,-0.745331 -3.975159,-0.745331c0.248474,0 -2.73291,-0.745331 -2.73291,-0.745331c0,0 -2.484497,-0.993835 -2.484497,-0.993835c0,0 -2.484497,-0.7453 -2.73291,-0.7453c0.248413,0 -2.732895,-1.490723 -2.981384,-1.490723c0.248489,0 -1.98761,-1.490662 -2.236023,-1.490662c0.248413,0 -2.236008,-1.98761 -2.484467,-1.98761c0.248459,0 -1.490692,-1.739136 -1.739136,-1.739136c0.248444,0 -1.987549,-2.981354 -2.235992,-2.981354c0.248446,0 -1.242279,-2.235992 -1.242279,-2.235992c0,0 -1.987577,-2.236023 -2.235992,-2.236023c0.248415,0 -0.745361,-2.981384 -0.993835,-2.981384c0.248474,0 -0.993774,-3.229797 -1.242188,-3.229797c0.248413,0 -0.745392,-3.229858 -0.993835,-3.229858c0.248444,0 -0.248413,-3.478271 -0.496887,-3.478271c0.248474,0 0,-2.484467 -0.248413,-2.484467c0.248413,0 0.7453,-2.73291 0.496887,-2.73291c0.248413,0 0.496857,-1.739136 0.248413,-1.739136c0.248444,0 0.745361,-2.236023 0.745361,-2.236023c0,0 0.496887,-2.236023 0.248474,-2.236023c0.248413,0 1.242188,-2.73291 0.993774,-2.73291c0.248413,0 1.739136,-2.73291 1.739136,-2.73291c0,0 1.490664,-2.732956 1.242249,-2.732956c0.248413,0 2.73291,-2.73291 2.484436,-2.73291c0.248474,0 2.732895,-2.236053 2.484497,-2.236053c0.248398,0 3.229796,-1.987564 2.981355,-1.987564c0.248444,0 3.726746,-1.739151 3.478302,-1.739151c0.248444,0 4.720457,-2.484451 4.472046,-2.484451c0.248411,0 5.217344,-1.987579 4.968933,-1.987579c0.248411,0 4.22357,-1.490692 3.975157,-1.490692c0.248413,0 4.223572,-1.73912 4.223572,-1.73912c0,0 4.223633,-1.490692 3.97522,-1.490692c0.248413,0 4.223602,-1.490692 3.975101,-1.490692c0.248505,0 4.223633,-1.490677 3.97522,-1.490677c0.248413,0 5.217377,-1.490692 4.968933,-1.490692c0.248444,0 4.472046,-1.242218 4.223602,-1.242218c0.248444,0 4.968929,-1.490692 4.720486,-1.490692c0.248459,0 4.472076,-1.242249 4.223633,-1.242249c0.248444,0 -2.732819,0.248413 5.217377,-0.496887z" id="svg_13" transform="rotate(44 38.9134 115.705)"/>
 </g>
</svg>